<?xml version="1.0" encoding="UTF-8"?>
<svg width="752pt" height="752pt" version="1.1" viewBox="0 0 752 752" xmlns="http://www.w3.org/2000/svg">
 <path d="m588.71 363.55c-6.6406-10.145-22.523-10.785-32.164-3.7969-1.3555-1.375-2.8945-2.5859-4.5898-3.5859-8.8828-5.2227-19.848-3.5156-28.75 0.69531-2.0508 0.97266-4.4414 2.2891-6.6523 3.9102-10.562-6.4961-29.391-4.2969-39.309 0.41016-0.89453 0.42578-1.8438 0.91797-2.8086 1.4727-11.176-10.98-34.953-9.9961-50.227-4.8359-3.0156 1.0195-6.3125 2.5898-9.168 4.6797-7.3828-7.8047-21.613-9.6758-33.965-6.5625-7.8125 1.9688-16.527 5.7617-21.852 12.258-8.9336-9.2734-24.797-11.754-37.703-6.6602-4.3867 1.7344-10.367 4.7031-14.832 8.7148-8.6953-6.9375-23.953-8.4531-34.16-6.0898-6.6523 1.5391-14.48 4.5547-19.758 9.6797-7.6719-8.2109-21.918-11.531-33.102-9.4141-7.4688 1.4102-14.969 4.4961-19.875 10.219-0.71875-0.71484-1.5-1.3867-2.3672-1.9805-6.0742-4.1484-13.812-4.5898-20.633-2.1602-5.1133 1.8281-13.441 5.8672-13.91 11.973-0.03125 0.44922 0.32812 0.75391 0.69141 0.91016 0.31641 0.13281 0.63281 0.26562 0.95312 0.39844 0.31641 0.13281 0.67188-0.25391 0.5625-0.5625-2.1836-6.0703 18.406-10.395 21.25-10.133 4.0508 0.375 8.1914 2.1367 10.941 5.2148-0.35547 0.63281-0.74219 1.2422-1.0391 1.9258-2.1211 4.8984-3.5508 13.031 1.0273 16.52 0.074218 0.48828 0.3125 0.97266 0.73438 1.2891 4.2539 3.207 7.1211-1.668 7.4766-5.5156 0.46484-5.0234-0.48438-10.242-3.0547-14.469 1.9102-2.3398 4.1055-4.2891 6.1367-5.4648 5.4023-3.1406 12.586-4.6875 18.77-4.8125 9.4062-0.1875 17.641 3.3203 22.438 9.6953-0.55078 0.83203-1.0508 1.6992-1.4648 2.625-3.0156 6.7422-1.1328 14.062 6.5352 14.555 0.87109 0.52734 2.2656 0.29297 2.5781-0.90625 1.668-6.3477 0.75-11.73-1.8242-16.109 4.332-3.8438 10.289-6.8281 12.688-7.668 5.0547-1.7695 10.574-2.8125 15.918-2.875 7.6133-0.089844 14.656 2.1602 19.223 6.7109-1.5195 2.0547-2.5781 4.3086-2.8516 6.7539-0.66406 5.9023 2.9297 10.82 8.8555 10.898 1 0.50391 2.5352 0.17188 2.918-1.1172 2.0781-6.9844 0.875-12.457-2.2656-16.613 3.0586-2.8086 6.3828-5.043 7.6562-5.7383 6.625-3.6289 13.82-5.582 21.371-4.7695 7.1562 0.77344 13.336 4.0156 17.422 9.0586-3.5312 6.9531-2.8516 14.926 4.6875 18.68 1.1211 0.55859 2.4766-0.91406 1.4219-1.8438-5.6133-4.9102-6.125-9.5898-4-13.723 1.8594 3.2852 2.9688 7.1172 3.082 11.387 0.074219 2.875 4.418 2.8828 4.4766 0 0.125-6.1719-1.5742-11.348-4.4688-15.512 6.1172-6.1719 17.207-10.539 22.145-11.633 11.035-2.4492 22.211-1.1523 27.914 5.7578-3.0078 3.1953-4.832 7.2031-3.9492 11.973 0.66797 3.6289 3.5664 8.4688 7.3516 5.3984-0.007812 0.042969-0.007812 0.082031-0.015624 0.12891-0.40234 2.3789 3.0039 3.4297 3.6836 1.0117 2.207-7.8281 1.2891-13.984-1.6289-18.598 1.9492-1.668 4.625-2.8594 8.0664-3.5508 1.3203-0.35156 2.6367-0.69531 3.9609-1.0469 6.4453-1.832 13.469-2.1484 20.141-1.9688 5.332 0.14844 10.711 0.48828 15.691 2.5234 2.5 1.0234 4.4414 2.2305 5.9609 3.6211-4.832 3.5547-8.8281 8.6211-6.6406 14.711 2.1172 5.8945 8.5234 7.1406 12.555 2.6367v-0.003907c0.007812 0.11719 0.019531 0.23828 0.027344 0.35547 0.17578 2.2305 3.1641 2.1641 3.418 0 0.82031-6.9336-0.46875-12.359-3.1914-16.531 1.582-0.91406 3.25-1.6758 5.0312-2.2539 4.2539-1.6211 8.8945-2.6953 13.422-3.0156 5.7344-0.40625 12.281 0.49609 17.125 3.3711-2.6953 2.9922-4.2656 6.6367-2.9297 10.812 1.6211 5.0547 6.8242 6.9219 10.977 4.3711 1.1953 0.58594 3.0586-0.023438 3.2539-1.793 0.6875-6.3164-1.0547-10.926-4.2617-14.184 1.3125-0.83203 2.6562-1.6094 4.043-2.3125 4.6445-2.3047 9.7969-3.9258 15.027-3.9023 5.8047 0.027344 10.84 2.1094 14.293 5.6484-0.44531 0.50781-0.88672 1.0117-1.2734 1.5664-2.5 3.582-3.4297 9.0391-0.40234 12.664 2.9297 3.5078 8.168 3.7383 11.219 0.40234 0.60547-0.66016 0.24219-1.6719-0.42578-1.9883 0.49609-4.3555-0.66797-8.5898-2.9727-12.184 2-1.1562 4.2812-1.9609 6.3086-2.5391 7.0234-2.0117 14.562-1.2422 18.977 5.2383 1.6953 2.4844 5.7617 0.16797 4.082-2.4023zm-389.79 31.266c-2.3594-3.6719-1.5742-8.2422 0.59375-12.379 1.2383 4.1445 2.9336 12.402-0.59375 12.379zm53.215-13.332c1.3555 2.9922 2.0703 6.4258 2.0117 10.25-4.3398-3.293-4.1875-6.9102-2.0117-10.25zm54.254-3.8047c1.6562 2.9883 2.4688 6.625 2.2227 10.875-6.2109-2.5234-5.2852-6.8281-2.2227-10.875zm108.97 3.4492c-0.25391-0.25-0.62109-0.39844-1.0039-0.29688-1.2578-4.5898-1.2969-8.3789-0.12891-11.375 1.2734 3.1172 1.6953 7.0078 1.1328 11.672zm60.875 0.16797c-7.1523-5.9023-8.0078-10.176-2.5703-12.836 0.050781-0.042969 0.10547-0.074219 0.15625-0.11719 2.0234 3.5195 2.625 7.8711 3.0586 13.043-0.16797-0.12891-0.39453-0.19922-0.64453-0.089844zm43.59-5.2422c-5.4102-3.5703-6.7852-6.8164-4.1406-9.7383 2.4805 2.3477 4.0469 5.5508 4.1406 9.7383zm35.941-9.8086c1.668 2.9414 2.5195 6.4609 2.2734 10.418 0 0.007813 0.003907 0.019532 0.003907 0.027344-3.8906-0.10938-4.7539-6.9414-2.2773-10.445z" fill="#fff"/>
</svg>
